<svg width="2639" height="988" xmlns="http://www.w3.org/2000/svg" xmlns:xlink="http://www.w3.org/1999/xlink" xml:space="preserve" overflow="hidden"><defs><clipPath id="clip0"><rect x="828" y="1175" width="2639" height="988"/></clipPath></defs><g clip-path="url(#clip0)" transform="translate(-828 -1175)"><rect x="1910" y="1454" width="838" height="447" fill="#F4B183"/><text font-family="Calibri,Calibri_MSFontService,sans-serif" font-weight="400" font-size="92" transform="matrix(1 0 0 1 2065.29 1621)">8</text><text font-family="Calibri,Calibri_MSFontService,sans-serif" font-weight="400" font-size="92" transform="matrix(1 0 0 1 2111.7 1621)">X</text><text font-family="Calibri,Calibri_MSFontService,sans-serif" font-weight="400" font-size="92" transform="matrix(1 0 0 1 2179.88 1621)">application</text><text font-family="Calibri,Calibri_MSFontService,sans-serif" font-weight="400" font-size="92" transform="matrix(1 0 0 1 2212.33 1731)">serve</text><text font-family="Calibri,Calibri_MSFontService,sans-serif" font-weight="400" font-size="92" transform="matrix(1 0 0 1 2413.37 1731)">r</text><text font-family="Calibri,Calibri_MSFontService,sans-serif" font-weight="400" font-size="55" transform="matrix(1 0 0 1 2179.51 1806)">ASP.NET Core </text><rect x="828" y="1175" width="553" height="279" fill="#F4B183"/><text font-family="Arial,Arial_MSFontService,sans-serif" font-weight="400" font-size="83" transform="matrix(1 0 0 1 962.213 1310)">8</text><text font-family="Calibri,Calibri_MSFontService,sans-serif" font-weight="400" font-size="83" transform="matrix(1 0 0 1 1008.05 1310)">x</text><text font-family="Calibri,Calibri_MSFontService,sans-serif" font-weight="400" font-size="83" transform="matrix(1 0 0 1 1062.47 1310)">c</text><text font-family="Calibri,Calibri_MSFontService,sans-serif" font-weight="400" font-size="83" transform="matrix(1 0 0 1 1097.42 1310)">lient</text><text font-family="Calibri,Calibri_MSFontService,sans-serif" font-weight="400" font-size="55" transform="matrix(1 0 0 1 1053.21 1382)">WPF</text><text font-family="Calibri,Calibri_MSFontService,sans-serif" font-weight="400" font-size="55" transform="matrix(1 0 0 1 1619.94 1654)">REST</text><text font-family="Calibri,Calibri_MSFontService,sans-serif" font-weight="400" font-size="55" transform="matrix(1 0 0 1 1740.51 1654)">AP</text><text font-family="Calibri,Calibri_MSFontService,sans-serif" font-weight="400" font-size="55" transform="matrix(1 0 0 1 1801.24 1654)">I</text><path d="M3045.5 1528C3045.5 1487.41 3139.3 1454.5 3255 1454.5 3370.7 1454.5 3464.5 1487.41 3464.5 1528L3464.5 1822C3464.5 1862.59 3370.7 1895.5 3255 1895.5 3139.3 1895.5 3045.5 1862.59 3045.5 1822Z" fill="#F4B183" fill-rule="evenodd"/><path d="M3464.5 1528C3464.5 1568.59 3370.7 1601.5 3255 1601.5 3139.3 1601.5 3045.5 1568.59 3045.5 1528" stroke="#843C0C" stroke-width="4.58333" stroke-miterlimit="8" fill="none" fill-rule="evenodd"/><path d="M3045.5 1528C3045.5 1487.41 3139.3 1454.5 3255 1454.5 3370.7 1454.5 3464.5 1487.41 3464.5 1528L3464.5 1822C3464.5 1862.59 3370.7 1895.5 3255 1895.5 3139.3 1895.5 3045.5 1862.59 3045.5 1822Z" stroke="#843C0C" stroke-width="4.58333" stroke-miterlimit="8" fill="none" fill-rule="evenodd"/><text font-family="Calibri,Calibri_MSFontService,sans-serif" font-weight="400" font-size="92" transform="matrix(1 0 0 1 3183.32 1688)">SQL </text><text font-family="Calibri,Calibri_MSFontService,sans-serif" font-weight="400" font-size="92" transform="matrix(1 0 0 1 3138.08 1798)">s</text><text font-family="Calibri,Calibri_MSFontService,sans-serif" font-weight="400" font-size="92" transform="matrix(1 0 0 1 3174.17 1798)">erver</text><path d="M22.9289-4.52167 263.137-3.87554 263.113 5.2911 22.9042 4.64496ZM27.4629 13.8239 0 0 27.5369-13.676ZM258.579-13.0545 286.042 0.769423 258.505 14.4454Z" fill="#4472C4" transform="matrix(1 0 0 -1 2754.5 1685.27)"/><rect x="828" y="1529" width="553" height="279" fill="#F4B183"/><text font-family="Arial,Arial_MSFontService,sans-serif" font-weight="400" font-size="83" transform="matrix(1 0 0 1 962.213 1664)">4</text><text font-family="Calibri,Calibri_MSFontService,sans-serif" font-weight="400" font-size="83" transform="matrix(1 0 0 1 1008.05 1664)">x</text><text font-family="Calibri,Calibri_MSFontService,sans-serif" font-weight="400" font-size="83" transform="matrix(1 0 0 1 1062.47 1664)">c</text><text font-family="Calibri,Calibri_MSFontService,sans-serif" font-weight="400" font-size="83" transform="matrix(1 0 0 1 1097.42 1664)">lient</text><text font-family="Calibri,Calibri_MSFontService,sans-serif" font-weight="400" font-size="55" transform="matrix(1 0 0 1 1060.09 1736)">VB</text><text font-family="Calibri,Calibri_MSFontService,sans-serif" font-weight="400" font-size="55" transform="matrix(1 0 0 1 1120.82 1736)">6</text><rect x="828" y="1883" width="553" height="280" fill="#F4B183"/><text font-family="Arial,Arial_MSFontService,sans-serif" font-weight="400" font-size="73" transform="matrix(1 0 0 1 885.923 2050)">Other</text><text font-family="Arial,Arial_MSFontService,sans-serif" font-weight="400" font-size="73" transform="matrix(1 0 0 1 1090.45 2050)">system</text><path d="M1400.42 1673.92 1887.75 1673.92 1887.75 1683.08 1400.42 1683.08ZM1405 1692.25 1377.5 1678.5 1405 1664.75ZM1883.17 1664.75 1910.67 1678.5 1883.17 1692.25Z" fill="#4472C4"/><path d="M1400.42 1309.92 1568.43 1309.92 1568.43 1319.08 1400.42 1319.08ZM1405 1328.25 1377.5 1314.5 1405 1300.75Z" fill="#4472C4"/><path d="M1405.42 2019.92 1573.43 2019.92 1573.43 2029.08 1405.42 2029.08ZM1410 2038.25 1382.5 2024.5 1410 2010.75Z" fill="#4472C4"/><path d="M0 0 0.000360892 708.778" stroke="#4472C4" stroke-width="9.16667" stroke-miterlimit="8" fill="none" fill-rule="evenodd" transform="matrix(1 0 0 -1 1568.5 2023.28)"/></g></svg>