<svg width="2407" height="451" xmlns="http://www.w3.org/2000/svg" xmlns:xlink="http://www.w3.org/1999/xlink" xml:space="preserve" overflow="hidden"><defs><clipPath id="clip0"><rect x="828" y="470" width="2407" height="451"/></clipPath></defs><g clip-path="url(#clip0)" transform="translate(-828 -470)"><rect x="1681" y="470" width="838" height="447" fill="#F4B183"/><text font-family="Calibri,Calibri_MSFontService,sans-serif" font-weight="400" font-size="92" transform="matrix(1 0 0 1 1836.59 636)">8</text><text font-family="Calibri,Calibri_MSFontService,sans-serif" font-weight="400" font-size="92" transform="matrix(1 0 0 1 1883 636)">X</text><text font-family="Calibri,Calibri_MSFontService,sans-serif" font-weight="400" font-size="92" transform="matrix(1 0 0 1 1951.17 636)">application</text><text font-family="Calibri,Calibri_MSFontService,sans-serif" font-weight="400" font-size="92" transform="matrix(1 0 0 1 1983.62 746)">serve</text><text font-family="Calibri,Calibri_MSFontService,sans-serif" font-weight="400" font-size="92" transform="matrix(1 0 0 1 2184.67 746)">r</text><text font-family="Calibri,Calibri_MSFontService,sans-serif" font-weight="400" font-size="55" transform="matrix(1 0 0 1 1950.81 821)">ASP.NET Core </text><rect x="828" y="470" width="553" height="447" fill="#F4B183"/><text font-family="Arial,Arial_MSFontService,sans-serif" font-weight="400" font-size="83" transform="matrix(1 0 0 1 962.213 689)">8</text><text font-family="Calibri,Calibri_MSFontService,sans-serif" font-weight="400" font-size="83" transform="matrix(1 0 0 1 1008.05 689)">x</text><text font-family="Calibri,Calibri_MSFontService,sans-serif" font-weight="400" font-size="83" transform="matrix(1 0 0 1 1062.47 689)">c</text><text font-family="Calibri,Calibri_MSFontService,sans-serif" font-weight="400" font-size="83" transform="matrix(1 0 0 1 1097.42 689)">lient</text><text font-family="Calibri,Calibri_MSFontService,sans-serif" font-weight="400" font-size="55" transform="matrix(1 0 0 1 1053.21 761)">WPF</text><path d="M22.9289-4.52167 263.137-3.87554 263.113 5.2911 22.9042 4.64496ZM27.4629 13.8239 0 0 27.5369-13.676ZM258.579-13.0545 286.042 0.769423 258.505 14.4454Z" fill="#4472C4" transform="matrix(1 0 0 -1 1381.5 691.27)"/><text font-family="Calibri,Calibri_MSFontService,sans-serif" font-weight="400" font-size="55" transform="matrix(1 0 0 1 1444 663)">REST</text><text font-family="Calibri,Calibri_MSFontService,sans-serif" font-weight="400" font-size="55" transform="matrix(1 0 0 1 1564.57 663)">AP</text><text font-family="Calibri,Calibri_MSFontService,sans-serif" font-weight="400" font-size="55" transform="matrix(1 0 0 1 1625.3 663)">I</text><path d="M2813.5 551C2813.5 510.407 2907.3 477.5 3023 477.5 3138.7 477.5 3232.5 510.407 3232.5 551L3232.5 845C3232.5 885.593 3138.7 918.5 3023 918.5 2907.3 918.5 2813.5 885.593 2813.5 845Z" fill="#F4B183" fill-rule="evenodd"/><path d="M3232.5 551C3232.5 591.593 3138.7 624.5 3023 624.5 2907.3 624.5 2813.5 591.593 2813.5 551" stroke="#843C0C" stroke-width="4.58333" stroke-miterlimit="8" fill="none" fill-rule="evenodd"/><path d="M2813.5 551C2813.5 510.407 2907.3 477.5 3023 477.5 3138.7 477.5 3232.5 510.407 3232.5 551L3232.5 845C3232.5 885.593 3138.7 918.5 3023 918.5 2907.3 918.5 2813.5 885.593 2813.5 845Z" stroke="#843C0C" stroke-width="4.58333" stroke-miterlimit="8" fill="none" fill-rule="evenodd"/><text font-family="Calibri,Calibri_MSFontService,sans-serif" font-weight="400" font-size="92" transform="matrix(1 0 0 1 2951.13 710)">SQL </text><text font-family="Calibri,Calibri_MSFontService,sans-serif" font-weight="400" font-size="92" transform="matrix(1 0 0 1 2905.89 821)">s</text><text font-family="Calibri,Calibri_MSFontService,sans-serif" font-weight="400" font-size="92" transform="matrix(1 0 0 1 2941.99 821)">erver</text><path d="M22.9289-4.52167 263.137-3.87554 263.113 5.2911 22.9042 4.64496ZM27.4629 13.8239 0 0 27.5369-13.676ZM258.579-13.0545 286.042 0.769423 258.505 14.4454Z" fill="#4472C4" transform="matrix(1 0 0 -1 2523.5 698.269)"/></g></svg>
