<svg width="2115" height="451" xmlns="http://www.w3.org/2000/svg" xmlns:xlink="http://www.w3.org/1999/xlink" xml:space="preserve" overflow="hidden"><defs><clipPath id="clip0"><rect x="158" y="604" width="2115" height="451"/></clipPath></defs><g clip-path="url(#clip0)" transform="translate(-158 -604)"><rect x="1011" y="604" width="553" height="447" fill="#F4B183"/><text font-family="Calibri,Calibri_MSFontService,sans-serif" font-weight="400" font-size="92" transform="matrix(1 0 0 1 1095.88 826)">8</text><text font-family="Calibri,Calibri_MSFontService,sans-serif" font-weight="400" font-size="92" transform="matrix(1 0 0 1 1142.29 826)">X Service</text><text font-family="Calibri,Calibri_MSFontService,sans-serif" font-weight="400" font-size="55" transform="matrix(1 0 0 1 1137.98 901)">ASP.NET Core </text><rect x="158" y="604" width="553" height="447" fill="#F4B183"/><text font-family="Arial,Arial_MSFontService,sans-serif" font-weight="400" font-size="83" transform="matrix(1 0 0 1 287.317 823)">8</text><text font-family="Calibri,Calibri_MSFontService,sans-serif" font-weight="400" font-size="83" transform="matrix(1 0 0 1 333.15 823)">x</text><text font-family="Calibri,Calibri_MSFontService,sans-serif" font-weight="400" font-size="83" transform="matrix(1 0 0 1 387.577 823)">Client</text><text font-family="Calibri,Calibri_MSFontService,sans-serif" font-weight="400" font-size="55" transform="matrix(1 0 0 1 382.902 895)">WPF</text><path d="M22.9289-4.52167 263.137-3.87554 263.113 5.2911 22.9042 4.64496ZM27.4629 13.8239 0 0 27.5369-13.676ZM258.579-13.0545 286.042 0.769423 258.505 14.4454Z" fill="#4472C4" transform="matrix(1 0 0 -1 711.5 826.269)"/><text font-family="Calibri,Calibri_MSFontService,sans-serif" font-weight="400" font-size="55" transform="matrix(1 0 0 1 775.441 791)">REST</text><text font-family="Calibri,Calibri_MSFontService,sans-serif" font-weight="400" font-size="55" transform="matrix(1 0 0 1 896.005 791)">AP</text><text font-family="Calibri,Calibri_MSFontService,sans-serif" font-weight="400" font-size="55" transform="matrix(1 0 0 1 956.734 791)">I</text><path d="M1850.5 685C1850.5 644.407 1944.52 611.5 2060.5 611.5 2176.48 611.5 2270.5 644.407 2270.5 685L2270.5 979C2270.5 1019.59 2176.48 1052.5 2060.5 1052.5 1944.52 1052.5 1850.5 1019.59 1850.5 979Z" fill="#F4B183" fill-rule="evenodd"/><path d="M2270.5 685C2270.5 725.593 2176.48 758.5 2060.5 758.5 1944.52 758.5 1850.5 725.593 1850.5 685" stroke="#843C0C" stroke-width="4.58333" stroke-miterlimit="8" fill="none" fill-rule="evenodd"/><path d="M1850.5 685C1850.5 644.407 1944.52 611.5 2060.5 611.5 2176.48 611.5 2270.5 644.407 2270.5 685L2270.5 979C2270.5 1019.59 2176.48 1052.5 2060.5 1052.5 1944.52 1052.5 1850.5 1019.59 1850.5 979Z" stroke="#843C0C" stroke-width="4.58333" stroke-miterlimit="8" fill="none" fill-rule="evenodd"/><text font-family="Calibri,Calibri_MSFontService,sans-serif" font-weight="400" font-size="92" transform="matrix(1 0 0 1 1988.62 844)">SQL </text><text font-family="Calibri,Calibri_MSFontService,sans-serif" font-weight="400" font-size="92" transform="matrix(1 0 0 1 1940.24 955)">Server</text><path d="M22.9289-4.52167 263.137-3.87554 263.113 5.2911 22.9042 4.64496ZM27.4629 13.8239 0 0 27.5369-13.676ZM258.579-13.0545 286.042 0.769423 258.505 14.4454Z" fill="#4472C4" transform="matrix(1 0 0 -1 1561.5 833.269)"/></g></svg>